<svg xmlns="http://www.w3.org/2000/svg" viewBox="0 0 640 460" fill="none">
  <defs>
    <clipPath id="mc-clip">
      <rect width="640" height="460" rx="10"/>
    </clipPath>
    <linearGradient id="mc-hdr-bg" x1="0" y1="0" x2="0" y2="1">
      <stop offset="0%"   stop-color="#0e1c2e"/>
      <stop offset="100%" stop-color="#0a1422"/>
    </linearGradient>
    <linearGradient id="mc-bar-bg" x1="0" y1="0" x2="0" y2="1">
      <stop offset="0%"   stop-color="#0a1422"/>
      <stop offset="100%" stop-color="#060e1a"/>
    </linearGradient>
    <radialGradient id="mc-chart-glow" cx="50%" cy="35%" r="55%">
      <stop offset="0%"   stop-color="#c9a84c" stop-opacity="0.07"/>
      <stop offset="100%" stop-color="#c9a84c" stop-opacity="0"/>
    </radialGradient>
    <filter id="mc-glow-sm" x="-40%" y="-40%" width="180%" height="180%">
      <feGaussianBlur stdDeviation="2.5" result="b"/>
      <feMerge><feMergeNode in="b"/><feMergeNode in="SourceGraphic"/></feMerge>
    </filter>
  </defs>

  <g clip-path="url(#mc-clip)">

    <!-- Terminal body -->
    <rect width="640" height="460" fill="#040c18"/>
    <rect width="640" height="460" fill="url(#mc-chart-glow)"/>

    <!-- HEADER BAR -->
    <rect width="640" height="46" fill="url(#mc-hdr-bg)"/>
    <line x1="0" y1="46" x2="640" y2="46" stroke="#c9a84c" stroke-opacity="0.20" stroke-width="1"/>
    <rect x="0"   y="0"  width="3" height="46" fill="#c9a84c" fill-opacity="0.35"/>
    <rect x="637" y="0"  width="3" height="46" fill="#c9a84c" fill-opacity="0.12"/>

    <text x="16" y="17" font-family="'Courier New',monospace" font-size="7.5" fill="#c9a84c" fill-opacity="0.45" letter-spacing="2.5">NCI &#183; NEXUS CAPITAL &amp; INVESTMENTS</text>
    <text x="16" y="35" font-family="'Courier New',monospace" font-size="11.5" fill="#c9a84c" font-weight="bold" letter-spacing="3">PORTFOLIO SIMULATION ENGINE</text>

    <circle cx="600" cy="23" r="4.5" fill="#ef4444" fill-opacity="0.85"/>
    <circle cx="615" cy="23" r="4.5" fill="#f59e0b" fill-opacity="0.85"/>
    <circle cx="630" cy="23" r="4.5" fill="#22c55e" fill-opacity="0.85"/>

    <rect x="552" y="30" width="38" height="11" rx="2.5" fill="#22c55e" fill-opacity="0.14" stroke="#22c55e" stroke-opacity="0.4" stroke-width="0.7"/>
    <text x="571" y="38.5" font-family="'Courier New',monospace" font-size="7" fill="#22c55e" text-anchor="middle" letter-spacing="1">VERIFIED</text>

    <rect x="594" y="10" width="7" height="2" fill="#c9a84c" fill-opacity="0.5">
      <animate attributeName="fill-opacity" values="0.5;0;0.5" dur="1.1s" repeatCount="indefinite"/>
    </rect>

    <!-- CHART - MONTE CARLO SIMULATION FAN -->

    <text x="16" y="64" font-family="'Courier New',monospace" font-size="8" fill="#c9a84c" fill-opacity="0.55" letter-spacing="2.5">SIMULATED OUTCOME DISTRIBUTION</text>
    <text x="290" y="64" font-family="'Courier New',monospace" font-size="7" fill="#8a9ab8" fill-opacity="0.30" letter-spacing="1">10,000+ RUNS &#183; PER STRATEGY</text>

    <rect x="58" y="70" width="524" height="270" rx="2" fill="none" stroke="#c9a84c" stroke-opacity="0.08" stroke-width="0.7"/>

    <line x1="58" y1="115" x2="582" y2="115" stroke="#c9a84c" stroke-opacity="0.05" stroke-width="0.7"/>
    <line x1="58" y1="170" x2="582" y2="170" stroke="#c9a84c" stroke-opacity="0.06" stroke-width="0.7"/>
    <line x1="58" y1="234" x2="582" y2="234" stroke="#c9a84c" stroke-opacity="0.10" stroke-width="0.7" stroke-dasharray="3,4"/>
    <line x1="58" y1="285" x2="582" y2="285" stroke="#c9a84c" stroke-opacity="0.05" stroke-width="0.7"/>

    <!-- Simulated path fan (34 paths) -->
<path d="M 60.0,234.3 L 70.8,233.0 L 81.7,225.5 L 92.5,229.7 L 103.3,223.6 L 114.2,224.2 L 125.0,224.8 L 135.8,213.8 L 146.7,212.2 L 157.5,211.6 L 168.3,206.9 L 179.2,200.0 L 190.0,199.4 L 200.8,195.4 L 211.7,199.9 L 222.5,201.1 L 233.3,202.6 L 244.2,209.0 L 255.0,216.3 L 265.8,224.3 L 276.7,224.8 L 287.5,224.9 L 298.3,225.9 L 309.2,224.7 L 320.0,231.1 L 330.8,230.7 L 341.7,228.7 L 352.5,223.8 L 363.3,227.6 L 374.2,228.9 L 385.0,239.0 L 395.8,240.9 L 406.7,251.9 L 417.5,258.8 L 428.3,252.1 L 439.2,263.1 L 450.0,258.0 L 460.8,255.5 L 471.7,256.4 L 482.5,253.1 L 493.3,249.5 L 504.2,243.1 L 515.0,243.5 L 525.8,245.9 L 536.7,248.4 L 547.5,252.9 L 558.3,252.3 L 569.2,255.8 L 580.0,249.2" fill="none" stroke="#c9a84c" stroke-width="0.8" stroke-opacity="0.10"/>
<path d="M 60.0,234.3 L 70.8,239.4 L 81.7,241.4 L 92.5,244.3 L 103.3,245.6 L 114.2,240.6 L 125.0,250.2 L 135.8,251.5 L 146.7,253.8 L 157.5,258.4 L 168.3,258.4 L 179.2,257.7 L 190.0,242.3 L 200.8,239.8 L 211.7,239.2 L 222.5,233.3 L 233.3,238.9 L 244.2,241.8 L 255.0,237.8 L 265.8,240.2 L 276.7,245.4 L 287.5,248.2 L 298.3,255.6 L 309.2,248.1 L 320.0,239.8 L 330.8,223.5 L 341.7,224.5 L 352.5,225.2 L 363.3,225.7 L 374.2,221.8 L 385.0,221.1 L 395.8,215.7 L 406.7,216.9 L 417.5,224.7 L 428.3,214.5 L 439.2,216.8 L 450.0,209.2 L 460.8,210.5 L 471.7,209.0 L 482.5,218.3 L 493.3,223.4 L 504.2,220.4 L 515.0,216.2 L 525.8,216.9 L 536.7,215.4 L 547.5,225.7 L 558.3,224.8 L 569.2,228.2 L 580.0,233.7" fill="none" stroke="#c9a84c" stroke-width="0.8" stroke-opacity="0.10"/>
<path d="M 60.0,234.3 L 70.8,246.7 L 81.7,247.7 L 92.5,241.0 L 103.3,241.6 L 114.2,239.7 L 125.0,250.2 L 135.8,251.3 L 146.7,253.4 L 157.5,245.5 L 168.3,243.5 L 179.2,242.8 L 190.0,247.5 L 200.8,253.1 L 211.7,252.4 L 222.5,241.5 L 233.3,255.2 L 244.2,275.8 L 255.0,259.7 L 265.8,246.5 L 276.7,240.6 L 287.5,236.8 L 298.3,238.9 L 309.2,240.7 L 320.0,248.9 L 330.8,243.2 L 341.7,243.8 L 352.5,257.6 L 363.3,260.6 L 374.2,263.8 L 385.0,267.8 L 395.8,251.9 L 406.7,242.5 L 417.5,265.9 L 428.3,261.1 L 439.2,251.8 L 450.0,240.6 L 460.8,233.4 L 471.7,247.7 L 482.5,239.9 L 493.3,238.3 L 504.2,225.8 L 515.0,221.1 L 525.8,231.6 L 536.7,216.1 L 547.5,224.2 L 558.3,214.4 L 569.2,210.0 L 580.0,213.1" fill="none" stroke="#c9a84c" stroke-width="0.8" stroke-opacity="0.10"/>
<path d="M 60.0,234.3 L 70.8,236.0 L 81.7,245.4 L 92.5,236.4 L 103.3,217.4 L 114.2,213.7 L 125.0,205.0 L 135.8,196.3 L 146.7,190.3 L 157.5,184.3 L 168.3,176.4 L 179.2,177.0 L 190.0,185.5 L 200.8,195.0 L 211.7,190.1 L 222.5,186.5 L 233.3,185.8 L 244.2,198.9 L 255.0,199.5 L 265.8,199.1 L 276.7,204.2 L 287.5,208.0 L 298.3,194.1 L 309.2,185.1 L 320.0,179.5 L 330.8,176.8 L 341.7,178.6 L 352.5,180.0 L 363.3,174.9 L 374.2,179.1 L 385.0,179.6 L 395.8,168.8 L 406.7,175.8 L 417.5,179.7 L 428.3,168.0 L 439.2,164.9 L 450.0,162.9 L 460.8,167.1 L 471.7,174.8 L 482.5,166.7 L 493.3,181.5 L 504.2,177.8 L 515.0,180.3 L 525.8,180.0 L 536.7,191.8 L 547.5,185.5 L 558.3,181.0 L 569.2,178.4 L 580.0,175.0" fill="none" stroke="#c9a84c" stroke-width="0.8" stroke-opacity="0.10"/>
<path d="M 60.0,234.3 L 70.8,231.0 L 81.7,230.1 L 92.5,235.8 L 103.3,229.9 L 114.2,227.5 L 125.0,224.8 L 135.8,223.0 L 146.7,213.3 L 157.5,207.2 L 168.3,199.4 L 179.2,200.2 L 190.0,202.0 L 200.8,207.0 L 211.7,207.6 L 222.5,222.3 L 233.3,212.1 L 244.2,210.5 L 255.0,209.2 L 265.8,203.4 L 276.7,204.7 L 287.5,202.4 L 298.3,197.1 L 309.2,205.3 L 320.0,194.5 L 330.8,192.8 L 341.7,188.4 L 352.5,193.6 L 363.3,196.3 L 374.2,185.7 L 385.0,187.9 L 395.8,189.4 L 406.7,185.9 L 417.5,176.8 L 428.3,189.9 L 439.2,180.6 L 450.0,178.2 L 460.8,172.1 L 471.7,177.2 L 482.5,174.6 L 493.3,164.4 L 504.2,164.1 L 515.0,166.9 L 525.8,168.6 L 536.7,170.8 L 547.5,165.4 L 558.3,163.4 L 569.2,165.4 L 580.0,160.0" fill="none" stroke="#c9a84c" stroke-width="0.8" stroke-opacity="0.10"/>
<path d="M 60.0,234.3 L 70.8,238.3 L 81.7,243.2 L 92.5,243.0 L 103.3,244.8 L 114.2,246.3 L 125.0,251.9 L 135.8,254.5 L 146.7,256.4 L 157.5,258.8 L 168.3,253.7 L 179.2,258.3 L 190.0,248.0 L 200.8,264.6 L 211.7,261.0 L 222.5,264.5 L 233.3,266.3 L 244.2,272.0 L 255.0,276.7 L 265.8,270.8 L 276.7,263.7 L 287.5,256.5 L 298.3,255.3 L 309.2,264.8 L 320.0,266.5 L 330.8,256.7 L 341.7,258.4 L 352.5,250.1 L 363.3,248.3 L 374.2,247.7 L 385.0,235.7 L 395.8,232.8 L 406.7,233.9 L 417.5,232.5 L 428.3,237.5 L 439.2,233.7 L 450.0,226.2 L 460.8,230.5 L 471.7,227.1 L 482.5,227.1 L 493.3,219.2 L 504.2,220.0 L 515.0,223.2 L 525.8,226.0 L 536.7,221.8 L 547.5,221.8 L 558.3,226.3 L 569.2,225.7 L 580.0,226.7" fill="none" stroke="#c9a84c" stroke-width="0.8" stroke-opacity="0.10"/>
<path d="M 60.0,234.3 L 70.8,234.7 L 81.7,227.3 L 92.5,222.1 L 103.3,218.8 L 114.2,217.5 L 125.0,216.5 L 135.8,216.5 L 146.7,213.0 L 157.5,216.1 L 168.3,206.5 L 179.2,197.8 L 190.0,195.4 L 200.8,187.9 L 211.7,179.4 L 222.5,179.1 L 233.3,182.6 L 244.2,176.6 L 255.0,183.6 L 265.8,177.7 L 276.7,174.3 L 287.5,177.8 L 298.3,190.0 L 309.2,187.3 L 320.0,182.7 L 330.8,179.8 L 341.7,194.1 L 352.5,191.4 L 363.3,189.4 L 374.2,188.8 L 385.0,193.3 L 395.8,201.9 L 406.7,193.4 L 417.5,193.0 L 428.3,201.1 L 439.2,194.1 L 450.0,200.6 L 460.8,196.8 L 471.7,204.1 L 482.5,205.3 L 493.3,205.8 L 504.2,194.3 L 515.0,200.7 L 525.8,205.0 L 536.7,197.8 L 547.5,190.3 L 558.3,188.9 L 569.2,191.9 L 580.0,194.7" fill="none" stroke="#c9a84c" stroke-width="0.8" stroke-opacity="0.10"/>
<path d="M 60.0,234.3 L 70.8,231.2 L 81.7,230.8 L 92.5,231.2 L 103.3,238.3 L 114.2,230.9 L 125.0,232.6 L 135.8,228.2 L 146.7,229.4 L 157.5,221.5 L 168.3,220.9 L 179.2,217.5 L 190.0,210.9 L 200.8,211.3 L 211.7,211.9 L 222.5,211.9 L 233.3,210.4 L 244.2,205.7 L 255.0,203.2 L 265.8,201.7 L 276.7,195.4 L 287.5,193.3 L 298.3,199.6 L 309.2,189.5 L 320.0,200.3 L 330.8,186.2 L 341.7,195.7 L 352.5,204.1 L 363.3,208.1 L 374.2,200.9 L 385.0,206.0 L 395.8,199.9 L 406.7,192.5 L 417.5,196.0 L 428.3,196.1 L 439.2,191.6 L 450.0,188.3 L 460.8,191.7 L 471.7,202.9 L 482.5,206.1 L 493.3,211.4 L 504.2,210.0 L 515.0,209.1 L 525.8,213.1 L 536.7,219.3 L 547.5,222.6 L 558.3,220.7 L 569.2,216.8 L 580.0,212.9" fill="none" stroke="#c9a84c" stroke-width="0.8" stroke-opacity="0.10"/>
<path d="M 60.0,234.3 L 70.8,231.0 L 81.7,214.2 L 92.5,212.1 L 103.3,212.0 L 114.2,204.9 L 125.0,213.4 L 135.8,213.2 L 146.7,213.5 L 157.5,209.6 L 168.3,215.0 L 179.2,211.3 L 190.0,218.9 L 200.8,217.4 L 211.7,228.1 L 222.5,233.0 L 233.3,223.5 L 244.2,208.2 L 255.0,210.4 L 265.8,207.0 L 276.7,208.2 L 287.5,216.2 L 298.3,226.1 L 309.2,226.2 L 320.0,223.5 L 330.8,222.9 L 341.7,231.4 L 352.5,225.5 L 363.3,226.0 L 374.2,217.4 L 385.0,211.9 L 395.8,205.5 L 406.7,213.3 L 417.5,207.6 L 428.3,202.9 L 439.2,197.3 L 450.0,191.4 L 460.8,189.4 L 471.7,196.4 L 482.5,200.7 L 493.3,201.2 L 504.2,221.8 L 515.0,223.5 L 525.8,227.7 L 536.7,223.5 L 547.5,228.2 L 558.3,241.2 L 569.2,231.1 L 580.0,227.0" fill="none" stroke="#c9a84c" stroke-width="0.8" stroke-opacity="0.10"/>
<path d="M 60.0,234.3 L 70.8,228.4 L 81.7,225.1 L 92.5,224.1 L 103.3,217.4 L 114.2,217.0 L 125.0,205.6 L 135.8,212.9 L 146.7,215.3 L 157.5,208.9 L 168.3,210.8 L 179.2,212.7 L 190.0,211.3 L 200.8,210.0 L 211.7,211.1 L 222.5,212.4 L 233.3,209.1 L 244.2,209.1 L 255.0,214.0 L 265.8,219.7 L 276.7,219.1 L 287.5,210.0 L 298.3,221.6 L 309.2,228.3 L 320.0,219.5 L 330.8,220.7 L 341.7,227.8 L 352.5,223.4 L 363.3,223.0 L 374.2,224.7 L 385.0,218.3 L 395.8,219.0 L 406.7,214.0 L 417.5,209.4 L 428.3,197.1 L 439.2,185.6 L 450.0,186.7 L 460.8,184.4 L 471.7,188.8 L 482.5,190.0 L 493.3,184.1 L 504.2,180.6 L 515.0,179.5 L 525.8,184.0 L 536.7,182.3 L 547.5,185.3 L 558.3,190.1 L 569.2,180.9 L 580.0,174.0" fill="none" stroke="#c9a84c" stroke-width="0.8" stroke-opacity="0.10"/>
<path d="M 60.0,234.3 L 70.8,235.1 L 81.7,225.7 L 92.5,232.4 L 103.3,234.8 L 114.2,241.2 L 125.0,244.8 L 135.8,248.9 L 146.7,248.6 L 157.5,243.4 L 168.3,238.9 L 179.2,237.8 L 190.0,238.6 L 200.8,242.4 L 211.7,235.3 L 222.5,241.9 L 233.3,243.6 L 244.2,232.1 L 255.0,245.0 L 265.8,248.6 L 276.7,249.9 L 287.5,238.7 L 298.3,248.2 L 309.2,260.2 L 320.0,256.4 L 330.8,242.0 L 341.7,253.2 L 352.5,251.7 L 363.3,245.7 L 374.2,242.9 L 385.0,247.7 L 395.8,247.2 L 406.7,244.0 L 417.5,242.7 L 428.3,247.3 L 439.2,241.6 L 450.0,231.8 L 460.8,219.7 L 471.7,212.4 L 482.5,194.3 L 493.3,183.7 L 504.2,180.1 L 515.0,176.2 L 525.8,187.6 L 536.7,183.8 L 547.5,194.5 L 558.3,192.8 L 569.2,191.2 L 580.0,175.7" fill="none" stroke="#c9a84c" stroke-width="0.8" stroke-opacity="0.10"/>
<path d="M 60.0,234.3 L 70.8,234.6 L 81.7,226.8 L 92.5,229.9 L 103.3,243.2 L 114.2,247.4 L 125.0,241.5 L 135.8,245.9 L 146.7,240.1 L 157.5,229.5 L 168.3,244.0 L 179.2,231.1 L 190.0,236.3 L 200.8,231.6 L 211.7,229.4 L 222.5,221.7 L 233.3,223.5 L 244.2,217.9 L 255.0,210.8 L 265.8,206.3 L 276.7,207.3 L 287.5,208.7 L 298.3,205.2 L 309.2,200.6 L 320.0,200.5 L 330.8,199.9 L 341.7,196.9 L 352.5,195.4 L 363.3,194.1 L 374.2,186.3 L 385.0,185.4 L 395.8,186.4 L 406.7,180.4 L 417.5,184.1 L 428.3,185.8 L 439.2,185.4 L 450.0,189.0 L 460.8,193.8 L 471.7,193.0 L 482.5,192.7 L 493.3,198.3 L 504.2,199.9 L 515.0,186.1 L 525.8,184.4 L 536.7,189.0 L 547.5,191.4 L 558.3,196.8 L 569.2,192.2 L 580.0,190.5" fill="none" stroke="#c9a84c" stroke-width="0.8" stroke-opacity="0.10"/>
<path d="M 60.0,234.3 L 70.8,231.0 L 81.7,226.8 L 92.5,221.7 L 103.3,227.5 L 114.2,227.7 L 125.0,221.2 L 135.8,225.7 L 146.7,226.3 L 157.5,226.3 L 168.3,228.5 L 179.2,230.9 L 190.0,226.2 L 200.8,224.9 L 211.7,236.0 L 222.5,248.4 L 233.3,248.7 L 244.2,239.2 L 255.0,234.3 L 265.8,233.4 L 276.7,228.4 L 287.5,230.0 L 298.3,230.0 L 309.2,224.1 L 320.0,222.3 L 330.8,229.0 L 341.7,233.3 L 352.5,230.2 L 363.3,234.5 L 374.2,243.5 L 385.0,256.7 L 395.8,251.6 L 406.7,252.0 L 417.5,253.4 L 428.3,249.1 L 439.2,254.2 L 450.0,257.4 L 460.8,261.2 L 471.7,262.7 L 482.5,259.1 L 493.3,259.5 L 504.2,246.7 L 515.0,246.5 L 525.8,245.4 L 536.7,253.4 L 547.5,245.5 L 558.3,246.4 L 569.2,230.9 L 580.0,234.2" fill="none" stroke="#c9a84c" stroke-width="0.8" stroke-opacity="0.10"/>
<path d="M 60.0,234.3 L 70.8,236.5 L 81.7,236.7 L 92.5,237.2 L 103.3,230.8 L 114.2,223.6 L 125.0,222.3 L 135.8,216.1 L 146.7,217.2 L 157.5,209.4 L 168.3,221.1 L 179.2,219.6 L 190.0,218.8 L 200.8,231.3 L 211.7,225.1 L 222.5,234.1 L 233.3,230.7 L 244.2,230.9 L 255.0,231.8 L 265.8,239.0 L 276.7,236.7 L 287.5,234.5 L 298.3,231.4 L 309.2,233.1 L 320.0,236.6 L 330.8,237.6 L 341.7,241.2 L 352.5,235.8 L 363.3,232.7 L 374.2,230.9 L 385.0,235.3 L 395.8,243.9 L 406.7,246.1 L 417.5,247.4 L 428.3,235.7 L 439.2,229.1 L 450.0,227.0 L 460.8,226.2 L 471.7,222.1 L 482.5,218.8 L 493.3,220.2 L 504.2,218.4 L 515.0,224.0 L 525.8,212.4 L 536.7,215.7 L 547.5,201.4 L 558.3,199.4 L 569.2,207.2 L 580.0,209.8" fill="none" stroke="#c9a84c" stroke-width="0.8" stroke-opacity="0.10"/>
<path d="M 60.0,234.3 L 70.8,237.6 L 81.7,239.0 L 92.5,222.4 L 103.3,225.0 L 114.2,234.4 L 125.0,231.4 L 135.8,229.4 L 146.7,223.7 L 157.5,225.4 L 168.3,213.9 L 179.2,208.6 L 190.0,189.4 L 200.8,184.3 L 211.7,181.5 L 222.5,170.3 L 233.3,162.9 L 244.2,167.4 L 255.0,160.6 L 265.8,164.4 L 276.7,154.5 L 287.5,157.7 L 298.3,154.1 L 309.2,158.7 L 320.0,155.2 L 330.8,144.2 L 341.7,134.9 L 352.5,138.5 L 363.3,147.1 L 374.2,141.0 L 385.0,144.9 L 395.8,149.5 L 406.7,143.5 L 417.5,151.4 L 428.3,144.5 L 439.2,135.7 L 450.0,134.5 L 460.8,140.1 L 471.7,140.6 L 482.5,128.8 L 493.3,126.4 L 504.2,116.4 L 515.0,115.0 L 525.8,113.0 L 536.7,110.6 L 547.5,108.7 L 558.3,105.4 L 569.2,98.3 L 580.0,88.6" fill="none" stroke="#c9a84c" stroke-width="0.8" stroke-opacity="0.10"/>
<path d="M 60.0,234.3 L 70.8,224.1 L 81.7,213.2 L 92.5,206.9 L 103.3,211.1 L 114.2,211.1 L 125.0,205.4 L 135.8,200.0 L 146.7,196.6 L 157.5,191.4 L 168.3,176.5 L 179.2,173.9 L 190.0,168.5 L 200.8,152.7 L 211.7,159.1 L 222.5,153.0 L 233.3,148.2 L 244.2,139.9 L 255.0,139.6 L 265.8,146.7 L 276.7,154.1 L 287.5,154.8 L 298.3,156.0 L 309.2,157.4 L 320.0,170.1 L 330.8,175.8 L 341.7,172.7 L 352.5,175.7 L 363.3,197.1 L 374.2,191.5 L 385.0,192.5 L 395.8,191.1 L 406.7,198.9 L 417.5,178.3 L 428.3,179.0 L 439.2,194.2 L 450.0,191.8 L 460.8,188.2 L 471.7,189.8 L 482.5,204.0 L 493.3,193.0 L 504.2,191.4 L 515.0,182.5 L 525.8,186.5 L 536.7,190.7 L 547.5,188.8 L 558.3,192.6 L 569.2,199.5 L 580.0,204.1" fill="none" stroke="#c9a84c" stroke-width="0.8" stroke-opacity="0.10"/>
<path d="M 60.0,234.3 L 70.8,229.3 L 81.7,231.8 L 92.5,228.0 L 103.3,224.6 L 114.2,223.4 L 125.0,238.9 L 135.8,225.8 L 146.7,225.7 L 157.5,232.9 L 168.3,241.8 L 179.2,251.3 L 190.0,249.5 L 200.8,247.2 L 211.7,244.6 L 222.5,233.8 L 233.3,243.9 L 244.2,230.0 L 255.0,232.2 L 265.8,235.7 L 276.7,237.5 L 287.5,229.9 L 298.3,236.5 L 309.2,226.1 L 320.0,235.9 L 330.8,232.5 L 341.7,243.1 L 352.5,239.7 L 363.3,247.3 L 374.2,248.8 L 385.0,257.8 L 395.8,274.2 L 406.7,287.5 L 417.5,276.7 L 428.3,284.3 L 439.2,288.4 L 450.0,291.1 L 460.8,285.9 L 471.7,292.3 L 482.5,302.7 L 493.3,290.0 L 504.2,301.8 L 515.0,299.2 L 525.8,293.0 L 536.7,279.6 L 547.5,268.0 L 558.3,270.6 L 569.2,263.7 L 580.0,271.8" fill="none" stroke="#c9a84c" stroke-width="0.8" stroke-opacity="0.10"/>
<path d="M 60.0,234.3 L 70.8,243.0 L 81.7,242.9 L 92.5,247.4 L 103.3,231.5 L 114.2,232.2 L 125.0,243.2 L 135.8,255.3 L 146.7,251.1 L 157.5,251.4 L 168.3,259.9 L 179.2,253.2 L 190.0,247.8 L 200.8,238.4 L 211.7,239.3 L 222.5,245.7 L 233.3,238.2 L 244.2,233.6 L 255.0,228.1 L 265.8,225.9 L 276.7,232.9 L 287.5,246.5 L 298.3,233.6 L 309.2,240.4 L 320.0,240.7 L 330.8,231.9 L 341.7,226.6 L 352.5,231.5 L 363.3,230.6 L 374.2,221.0 L 385.0,224.3 L 395.8,237.0 L 406.7,239.7 L 417.5,254.3 L 428.3,241.9 L 439.2,243.9 L 450.0,249.5 L 460.8,266.3 L 471.7,260.6 L 482.5,260.8 L 493.3,260.8 L 504.2,255.8 L 515.0,260.8 L 525.8,262.6 L 536.7,254.3 L 547.5,250.7 L 558.3,240.1 L 569.2,245.0 L 580.0,249.6" fill="none" stroke="#c9a84c" stroke-width="0.8" stroke-opacity="0.10"/>
<path d="M 60.0,234.3 L 70.8,244.2 L 81.7,249.8 L 92.5,250.9 L 103.3,235.4 L 114.2,220.9 L 125.0,231.5 L 135.8,235.0 L 146.7,238.9 L 157.5,236.5 L 168.3,238.8 L 179.2,241.7 L 190.0,242.0 L 200.8,239.0 L 211.7,247.1 L 222.5,245.5 L 233.3,248.4 L 244.2,249.2 L 255.0,260.9 L 265.8,257.9 L 276.7,254.5 L 287.5,248.7 L 298.3,245.3 L 309.2,244.8 L 320.0,247.1 L 330.8,239.4 L 341.7,241.5 L 352.5,240.4 L 363.3,235.1 L 374.2,227.6 L 385.0,221.9 L 395.8,211.7 L 406.7,207.6 L 417.5,208.6 L 428.3,204.2 L 439.2,213.2 L 450.0,211.3 L 460.8,208.5 L 471.7,210.4 L 482.5,213.5 L 493.3,212.7 L 504.2,208.3 L 515.0,209.6 L 525.8,218.3 L 536.7,214.1 L 547.5,213.4 L 558.3,219.1 L 569.2,212.9 L 580.0,216.3" fill="none" stroke="#c9a84c" stroke-width="0.8" stroke-opacity="0.10"/>
<path d="M 60.0,234.3 L 70.8,241.1 L 81.7,244.2 L 92.5,254.3 L 103.3,248.5 L 114.2,251.1 L 125.0,248.4 L 135.8,249.0 L 146.7,249.7 L 157.5,237.9 L 168.3,237.4 L 179.2,232.1 L 190.0,229.7 L 200.8,216.8 L 211.7,218.4 L 222.5,222.8 L 233.3,226.8 L 244.2,220.9 L 255.0,231.2 L 265.8,219.6 L 276.7,213.5 L 287.5,213.3 L 298.3,200.5 L 309.2,187.5 L 320.0,184.2 L 330.8,177.0 L 341.7,162.9 L 352.5,153.9 L 363.3,155.4 L 374.2,153.0 L 385.0,146.9 L 395.8,138.7 L 406.7,145.2 L 417.5,144.7 L 428.3,156.6 L 439.2,156.5 L 450.0,145.6 L 460.8,136.7 L 471.7,132.5 L 482.5,133.1 L 493.3,132.6 L 504.2,141.8 L 515.0,142.7 L 525.8,141.6 L 536.7,134.4 L 547.5,135.2 L 558.3,149.7 L 569.2,148.2 L 580.0,146.6" fill="none" stroke="#c9a84c" stroke-width="0.8" stroke-opacity="0.10"/>
<path d="M 60.0,234.3 L 70.8,224.7 L 81.7,229.8 L 92.5,225.2 L 103.3,223.3 L 114.2,222.2 L 125.0,212.5 L 135.8,218.8 L 146.7,217.8 L 157.5,216.4 L 168.3,222.8 L 179.2,220.6 L 190.0,221.9 L 200.8,231.8 L 211.7,239.6 L 222.5,240.5 L 233.3,241.8 L 244.2,231.5 L 255.0,241.4 L 265.8,242.1 L 276.7,235.5 L 287.5,236.8 L 298.3,234.9 L 309.2,237.8 L 320.0,240.0 L 330.8,236.6 L 341.7,228.5 L 352.5,223.5 L 363.3,228.6 L 374.2,226.6 L 385.0,234.0 L 395.8,246.4 L 406.7,246.5 L 417.5,244.5 L 428.3,250.7 L 439.2,252.5 L 450.0,248.3 L 460.8,239.6 L 471.7,242.4 L 482.5,243.2 L 493.3,240.0 L 504.2,241.3 L 515.0,240.5 L 525.8,235.1 L 536.7,230.7 L 547.5,219.7 L 558.3,217.5 L 569.2,209.6 L 580.0,197.8" fill="none" stroke="#c9a84c" stroke-width="0.8" stroke-opacity="0.10"/>
<path d="M 60.0,234.3 L 70.8,227.8 L 81.7,238.9 L 92.5,236.2 L 103.3,230.7 L 114.2,233.7 L 125.0,232.6 L 135.8,223.4 L 146.7,217.1 L 157.5,221.5 L 168.3,212.1 L 179.2,205.4 L 190.0,207.6 L 200.8,206.9 L 211.7,208.2 L 222.5,206.0 L 233.3,208.4 L 244.2,204.3 L 255.0,209.9 L 265.8,200.4 L 276.7,202.7 L 287.5,205.2 L 298.3,204.2 L 309.2,193.1 L 320.0,188.6 L 330.8,191.8 L 341.7,192.9 L 352.5,193.4 L 363.3,184.2 L 374.2,191.2 L 385.0,190.3 L 395.8,201.1 L 406.7,204.4 L 417.5,191.6 L 428.3,188.7 L 439.2,197.9 L 450.0,209.7 L 460.8,208.3 L 471.7,206.2 L 482.5,206.7 L 493.3,202.2 L 504.2,206.3 L 515.0,207.4 L 525.8,201.9 L 536.7,200.7 L 547.5,186.1 L 558.3,190.7 L 569.2,192.6 L 580.0,196.4" fill="none" stroke="#c9a84c" stroke-width="0.8" stroke-opacity="0.10"/>
<path d="M 60.0,234.3 L 70.8,237.0 L 81.7,239.2 L 92.5,233.0 L 103.3,231.8 L 114.2,229.9 L 125.0,218.4 L 135.8,214.2 L 146.7,211.2 L 157.5,208.3 L 168.3,206.0 L 179.2,209.7 L 190.0,220.4 L 200.8,224.4 L 211.7,220.1 L 222.5,222.1 L 233.3,212.8 L 244.2,206.7 L 255.0,202.0 L 265.8,195.6 L 276.7,184.7 L 287.5,189.9 L 298.3,197.0 L 309.2,199.1 L 320.0,193.7 L 330.8,186.0 L 341.7,188.6 L 352.5,191.7 L 363.3,193.6 L 374.2,184.2 L 385.0,192.0 L 395.8,182.6 L 406.7,190.5 L 417.5,196.7 L 428.3,186.0 L 439.2,192.2 L 450.0,193.8 L 460.8,190.0 L 471.7,188.8 L 482.5,191.9 L 493.3,207.1 L 504.2,205.5 L 515.0,215.0 L 525.8,215.0 L 536.7,217.6 L 547.5,221.0 L 558.3,224.6 L 569.2,215.6 L 580.0,219.0" fill="none" stroke="#c9a84c" stroke-width="0.8" stroke-opacity="0.10"/>
<path d="M 60.0,234.3 L 70.8,229.4 L 81.7,225.9 L 92.5,218.9 L 103.3,220.6 L 114.2,222.5 L 125.0,223.8 L 135.8,223.6 L 146.7,222.7 L 157.5,219.5 L 168.3,221.9 L 179.2,218.3 L 190.0,222.1 L 200.8,216.3 L 211.7,211.4 L 222.5,201.7 L 233.3,204.4 L 244.2,202.1 L 255.0,204.0 L 265.8,198.4 L 276.7,194.7 L 287.5,193.4 L 298.3,197.7 L 309.2,191.6 L 320.0,189.9 L 330.8,183.2 L 341.7,187.3 L 352.5,185.9 L 363.3,208.0 L 374.2,210.4 L 385.0,208.7 L 395.8,204.0 L 406.7,206.2 L 417.5,201.5 L 428.3,188.1 L 439.2,178.6 L 450.0,175.6 L 460.8,174.8 L 471.7,172.1 L 482.5,169.4 L 493.3,171.5 L 504.2,172.5 L 515.0,170.4 L 525.8,163.7 L 536.7,155.9 L 547.5,156.5 L 558.3,161.4 L 569.2,157.8 L 580.0,165.1" fill="none" stroke="#c9a84c" stroke-width="0.8" stroke-opacity="0.10"/>
<path d="M 60.0,234.3 L 70.8,231.9 L 81.7,239.2 L 92.5,235.2 L 103.3,234.8 L 114.2,246.0 L 125.0,252.8 L 135.8,248.5 L 146.7,249.6 L 157.5,243.1 L 168.3,242.5 L 179.2,240.1 L 190.0,236.2 L 200.8,224.3 L 211.7,229.8 L 222.5,216.9 L 233.3,217.8 L 244.2,216.2 L 255.0,224.3 L 265.8,222.4 L 276.7,218.8 L 287.5,210.4 L 298.3,206.5 L 309.2,200.8 L 320.0,202.6 L 330.8,212.8 L 341.7,217.9 L 352.5,215.2 L 363.3,224.3 L 374.2,232.6 L 385.0,230.5 L 395.8,243.7 L 406.7,244.7 L 417.5,251.5 L 428.3,247.4 L 439.2,249.9 L 450.0,247.4 L 460.8,245.3 L 471.7,237.2 L 482.5,238.0 L 493.3,235.5 L 504.2,253.7 L 515.0,254.8 L 525.8,252.2 L 536.7,256.5 L 547.5,262.2 L 558.3,262.7 L 569.2,268.5 L 580.0,268.3" fill="none" stroke="#c9a84c" stroke-width="0.8" stroke-opacity="0.10"/>
<path d="M 60.0,234.3 L 70.8,219.6 L 81.7,223.6 L 92.5,216.2 L 103.3,220.8 L 114.2,219.9 L 125.0,224.6 L 135.8,226.1 L 146.7,242.5 L 157.5,236.1 L 168.3,222.2 L 179.2,219.0 L 190.0,221.9 L 200.8,218.5 L 211.7,202.0 L 222.5,214.6 L 233.3,212.3 L 244.2,208.1 L 255.0,201.3 L 265.8,202.7 L 276.7,200.1 L 287.5,204.8 L 298.3,212.2 L 309.2,208.0 L 320.0,204.1 L 330.8,204.1 L 341.7,204.2 L 352.5,206.4 L 363.3,212.6 L 374.2,216.4 L 385.0,216.3 L 395.8,228.0 L 406.7,234.8 L 417.5,235.9 L 428.3,233.0 L 439.2,229.4 L 450.0,231.6 L 460.8,222.7 L 471.7,215.8 L 482.5,221.0 L 493.3,230.4 L 504.2,225.8 L 515.0,229.3 L 525.8,231.8 L 536.7,231.5 L 547.5,232.8 L 558.3,239.9 L 569.2,229.8 L 580.0,239.9" fill="none" stroke="#c9a84c" stroke-width="0.8" stroke-opacity="0.10"/>
<path d="M 60.0,234.3 L 70.8,221.8 L 81.7,229.7 L 92.5,225.1 L 103.3,218.9 L 114.2,225.9 L 125.0,230.3 L 135.8,230.0 L 146.7,229.1 L 157.5,244.0 L 168.3,252.1 L 179.2,247.8 L 190.0,252.3 L 200.8,250.1 L 211.7,250.5 L 222.5,253.4 L 233.3,257.0 L 244.2,252.3 L 255.0,256.4 L 265.8,262.6 L 276.7,268.2 L 287.5,263.3 L 298.3,253.1 L 309.2,258.6 L 320.0,249.1 L 330.8,244.7 L 341.7,240.4 L 352.5,242.1 L 363.3,241.4 L 374.2,252.3 L 385.0,243.6 L 395.8,223.6 L 406.7,216.5 L 417.5,218.0 L 428.3,220.2 L 439.2,212.9 L 450.0,228.7 L 460.8,231.7 L 471.7,227.9 L 482.5,231.6 L 493.3,240.4 L 504.2,244.7 L 515.0,241.3 L 525.8,244.1 L 536.7,252.5 L 547.5,257.3 L 558.3,253.8 L 569.2,261.1 L 580.0,240.1" fill="none" stroke="#c9a84c" stroke-width="0.8" stroke-opacity="0.10"/>
<path d="M 60.0,234.3 L 70.8,237.8 L 81.7,232.7 L 92.5,248.6 L 103.3,244.2 L 114.2,247.2 L 125.0,240.0 L 135.8,242.0 L 146.7,247.5 L 157.5,244.2 L 168.3,261.7 L 179.2,259.2 L 190.0,254.4 L 200.8,265.6 L 211.7,261.2 L 222.5,255.3 L 233.3,258.6 L 244.2,260.2 L 255.0,248.6 L 265.8,257.4 L 276.7,266.8 L 287.5,263.0 L 298.3,240.2 L 309.2,236.1 L 320.0,238.7 L 330.8,237.2 L 341.7,232.3 L 352.5,234.7 L 363.3,230.0 L 374.2,238.5 L 385.0,231.4 L 395.8,231.5 L 406.7,241.7 L 417.5,231.8 L 428.3,227.9 L 439.2,230.8 L 450.0,230.0 L 460.8,233.8 L 471.7,239.2 L 482.5,248.0 L 493.3,251.0 L 504.2,242.8 L 515.0,240.4 L 525.8,249.7 L 536.7,253.3 L 547.5,260.9 L 558.3,257.8 L 569.2,257.7 L 580.0,248.2" fill="none" stroke="#c9a84c" stroke-width="0.8" stroke-opacity="0.10"/>
<path d="M 60.0,234.3 L 70.8,237.9 L 81.7,231.0 L 92.5,232.4 L 103.3,220.1 L 114.2,208.0 L 125.0,206.5 L 135.8,209.1 L 146.7,204.0 L 157.5,214.8 L 168.3,219.9 L 179.2,225.8 L 190.0,218.8 L 200.8,215.5 L 211.7,226.1 L 222.5,230.9 L 233.3,230.0 L 244.2,239.5 L 255.0,238.6 L 265.8,234.0 L 276.7,238.6 L 287.5,246.8 L 298.3,237.6 L 309.2,249.1 L 320.0,243.4 L 330.8,246.4 L 341.7,242.4 L 352.5,239.4 L 363.3,244.5 L 374.2,237.8 L 385.0,256.5 L 395.8,261.8 L 406.7,268.6 L 417.5,267.8 L 428.3,276.7 L 439.2,266.2 L 450.0,278.6 L 460.8,286.8 L 471.7,281.9 L 482.5,273.7 L 493.3,267.8 L 504.2,283.3 L 515.0,289.9 L 525.8,289.1 L 536.7,289.7 L 547.5,288.7 L 558.3,292.7 L 569.2,295.3 L 580.0,321.4" fill="none" stroke="#c9a84c" stroke-width="0.8" stroke-opacity="0.10"/>
<path d="M 60.0,234.3 L 70.8,228.2 L 81.7,227.3 L 92.5,227.7 L 103.3,239.4 L 114.2,225.1 L 125.0,235.0 L 135.8,232.4 L 146.7,227.1 L 157.5,235.7 L 168.3,236.7 L 179.2,232.3 L 190.0,221.7 L 200.8,222.6 L 211.7,212.4 L 222.5,215.1 L 233.3,218.8 L 244.2,226.9 L 255.0,221.8 L 265.8,226.3 L 276.7,227.5 L 287.5,221.3 L 298.3,222.9 L 309.2,223.5 L 320.0,220.2 L 330.8,210.1 L 341.7,212.7 L 352.5,215.9 L 363.3,221.9 L 374.2,220.9 L 385.0,219.3 L 395.8,229.7 L 406.7,233.4 L 417.5,229.9 L 428.3,229.4 L 439.2,226.5 L 450.0,224.9 L 460.8,218.2 L 471.7,208.7 L 482.5,213.4 L 493.3,223.3 L 504.2,225.6 L 515.0,222.4 L 525.8,207.4 L 536.7,222.6 L 547.5,220.4 L 558.3,218.2 L 569.2,213.2 L 580.0,209.0" fill="none" stroke="#c9a84c" stroke-width="0.8" stroke-opacity="0.10"/>
<path d="M 60.0,234.3 L 70.8,230.5 L 81.7,225.4 L 92.5,217.1 L 103.3,215.2 L 114.2,220.5 L 125.0,220.0 L 135.8,224.2 L 146.7,216.1 L 157.5,213.9 L 168.3,206.6 L 179.2,213.3 L 190.0,215.0 L 200.8,210.4 L 211.7,222.1 L 222.5,225.2 L 233.3,232.9 L 244.2,235.4 L 255.0,222.8 L 265.8,222.5 L 276.7,227.9 L 287.5,224.9 L 298.3,216.4 L 309.2,219.0 L 320.0,212.4 L 330.8,216.0 L 341.7,209.7 L 352.5,200.2 L 363.3,197.8 L 374.2,194.0 L 385.0,194.3 L 395.8,196.6 L 406.7,206.1 L 417.5,199.8 L 428.3,200.3 L 439.2,201.6 L 450.0,202.5 L 460.8,195.4 L 471.7,186.6 L 482.5,184.2 L 493.3,179.9 L 504.2,175.5 L 515.0,183.8 L 525.8,187.6 L 536.7,193.7 L 547.5,185.7 L 558.3,191.8 L 569.2,214.3 L 580.0,199.2" fill="none" stroke="#c9a84c" stroke-width="0.8" stroke-opacity="0.10"/>
<path d="M 60.0,234.3 L 70.8,233.7 L 81.7,238.2 L 92.5,237.5 L 103.3,230.8 L 114.2,237.0 L 125.0,231.3 L 135.8,231.9 L 146.7,236.3 L 157.5,229.7 L 168.3,233.4 L 179.2,236.2 L 190.0,232.3 L 200.8,240.9 L 211.7,245.6 L 222.5,241.8 L 233.3,230.0 L 244.2,235.3 L 255.0,235.7 L 265.8,236.2 L 276.7,232.6 L 287.5,228.9 L 298.3,253.8 L 309.2,254.1 L 320.0,258.5 L 330.8,263.2 L 341.7,251.5 L 352.5,242.3 L 363.3,236.7 L 374.2,241.1 L 385.0,247.7 L 395.8,245.6 L 406.7,241.7 L 417.5,225.5 L 428.3,224.1 L 439.2,220.2 L 450.0,226.1 L 460.8,232.4 L 471.7,224.4 L 482.5,229.5 L 493.3,228.4 L 504.2,232.4 L 515.0,237.0 L 525.8,235.7 L 536.7,244.8 L 547.5,245.4 L 558.3,235.9 L 569.2,242.8 L 580.0,246.6" fill="none" stroke="#c9a84c" stroke-width="0.8" stroke-opacity="0.10"/>
<path d="M 60.0,234.3 L 70.8,244.8 L 81.7,235.6 L 92.5,236.0 L 103.3,238.0 L 114.2,232.2 L 125.0,243.0 L 135.8,253.0 L 146.7,245.3 L 157.5,246.6 L 168.3,234.5 L 179.2,228.6 L 190.0,225.4 L 200.8,215.4 L 211.7,222.6 L 222.5,208.1 L 233.3,204.6 L 244.2,209.1 L 255.0,201.8 L 265.8,200.8 L 276.7,185.4 L 287.5,189.4 L 298.3,191.4 L 309.2,182.0 L 320.0,178.8 L 330.8,165.5 L 341.7,163.6 L 352.5,162.1 L 363.3,160.4 L 374.2,151.9 L 385.0,153.9 L 395.8,151.4 L 406.7,138.9 L 417.5,124.3 L 428.3,114.3 L 439.2,101.3 L 450.0,94.2 L 460.8,96.8 L 471.7,96.8 L 482.5,93.2 L 493.3,97.7 L 504.2,115.7 L 515.0,114.9 L 525.8,123.2 L 536.7,123.4 L 547.5,128.3 L 558.3,123.2 L 569.2,118.3 L 580.0,117.9" fill="none" stroke="#c9a84c" stroke-width="0.8" stroke-opacity="0.10"/>
<path d="M 60.0,234.3 L 70.8,239.6 L 81.7,229.9 L 92.5,221.5 L 103.3,230.4 L 114.2,235.9 L 125.0,235.5 L 135.8,223.8 L 146.7,230.6 L 157.5,225.1 L 168.3,225.4 L 179.2,235.8 L 190.0,234.6 L 200.8,234.5 L 211.7,228.5 L 222.5,230.0 L 233.3,234.2 L 244.2,236.9 L 255.0,233.4 L 265.8,233.0 L 276.7,231.3 L 287.5,232.6 L 298.3,230.1 L 309.2,231.8 L 320.0,238.0 L 330.8,237.3 L 341.7,240.7 L 352.5,239.0 L 363.3,227.8 L 374.2,234.7 L 385.0,240.9 L 395.8,252.3 L 406.7,245.9 L 417.5,248.4 L 428.3,233.2 L 439.2,239.3 L 450.0,242.6 L 460.8,235.9 L 471.7,239.7 L 482.5,241.6 L 493.3,234.0 L 504.2,228.3 L 515.0,227.6 L 525.8,224.9 L 536.7,225.8 L 547.5,226.6 L 558.3,232.8 L 569.2,231.1 L 580.0,229.0" fill="none" stroke="#c9a84c" stroke-width="0.8" stroke-opacity="0.10"/>

    <!-- Confidence band (10th-90th percentile) -->
<path d="M 60.0,234.3 L 70.8,225.6 L 81.7,225.2 L 92.5,217.6 L 103.3,217.4 L 114.2,214.7 L 125.0,208.3 L 135.8,213.0 L 146.7,211.5 L 157.5,208.5 L 168.3,206.1 L 179.2,200.1 L 190.0,196.6 L 200.8,195.2 L 211.7,193.1 L 222.5,190.9 L 233.3,190.9 L 244.2,199.9 L 255.0,200.1 L 265.8,196.5 L 276.7,184.9 L 287.5,189.5 L 298.3,192.2 L 309.2,185.8 L 320.0,180.4 L 330.8,176.9 L 341.7,174.5 L 352.5,177.0 L 363.3,177.7 L 374.2,180.7 L 385.0,181.4 L 395.8,173.0 L 406.7,177.2 L 417.5,177.2 L 428.3,171.3 L 439.2,169.0 L 450.0,166.7 L 460.8,168.6 L 471.7,172.9 L 482.5,167.5 L 493.3,166.5 L 504.2,166.6 L 515.0,168.0 L 525.8,165.2 L 536.7,160.4 L 547.5,159.1 L 558.3,162.0 L 569.2,160.1 L 580.0,161.6 L 580.0,249.5 L 569.2,260.1 L 558.3,256.6 L 547.5,259.9 L 536.7,254.0 L 525.8,251.4 L 515.0,252.3 L 504.2,251.6 L 493.3,257.0 L 482.5,257.3 L 471.7,259.3 L 460.8,259.5 L 450.0,255.0 L 439.2,253.7 L 428.3,251.7 L 417.5,257.4 L 406.7,250.3 L 395.8,251.8 L 385.0,253.9 L 374.2,246.4 L 363.3,245.3 L 352.5,242.3 L 341.7,243.6 L 330.8,244.3 L 320.0,249.0 L 309.2,252.6 L 298.3,251.7 L 287.5,248.6 L 276.7,253.1 L 265.8,254.7 L 255.0,254.1 L 244.2,251.3 L 233.3,253.2 L 222.5,247.6 L 211.7,249.5 L 200.8,249.2 L 190.0,247.9 L 179.2,252.7 L 168.3,253.2 L 157.5,246.3 L 146.7,250.7 L 135.8,251.5 L 125.0,249.7 L 114.2,246.2 L 103.3,243.9 L 92.5,246.4 L 81.7,243.9 L 70.8,242.4 L 60.0,234.3 Z" fill="#c9a84c" fill-opacity="0.09"/>

    <!-- Median outcome path -->
<path d="M 60.0,234.3 L 70.8,234.1 L 81.7,230.9 L 92.5,231.8 L 103.3,230.6 L 114.2,227.6 L 125.0,231.4 L 135.8,225.9 L 146.7,226.7 L 157.5,225.8 L 168.3,224.1 L 179.2,227.2 L 190.0,222.0 L 200.8,223.4 L 211.7,225.6 L 222.5,224.0 L 233.3,225.2 L 244.2,223.9 L 255.0,223.5 L 265.8,223.4 L 276.7,226.1 L 287.5,223.1 L 298.3,224.4 L 309.2,224.4 L 320.0,221.2 L 330.8,221.8 L 341.7,225.5 L 352.5,223.4 L 363.3,225.0 L 374.2,221.4 L 385.0,220.2 L 395.8,221.3 L 406.7,216.7 L 417.5,221.3 L 428.3,217.4 L 439.2,215.0 L 450.0,218.1 L 460.8,214.4 L 471.7,209.7 L 482.5,213.4 L 493.3,216.0 L 504.2,219.2 L 515.0,218.6 L 525.8,216.0 L 536.7,216.9 L 547.5,220.7 L 558.3,218.7 L 569.2,213.7 L 580.0,213.0" fill="none" stroke="#e2c068" stroke-width="2.6" stroke-linecap="round" stroke-linejoin="round"/>

    <!-- Start marker -->
    <circle cx="60" cy="234.3" r="3.2" fill="#e2c068"/>
    <rect x="16" y="228" width="40" height="12" rx="2" fill="#0a1422" stroke="#c9a84c" stroke-opacity="0.3" stroke-width="0.6"/>
    <text x="36" y="237" font-family="'Courier New',monospace" font-size="6.5" fill="#c9a84c" text-anchor="middle" letter-spacing="0.5">START</text>

    <!-- Median end marker -->
    <circle cx="580" cy="213" r="8" fill="#e2c068" fill-opacity="0.10">
      <animate attributeName="r" values="8;13;8" dur="2.4s" repeatCount="indefinite"/>
      <animate attributeName="fill-opacity" values="0.10;0.03;0.10" dur="2.4s" repeatCount="indefinite"/>
    </circle>
    <circle cx="580" cy="213" r="3.2" fill="#e2c068" filter="url(#mc-glow-sm)"/>

    <text x="587" y="164" font-family="'Courier New',monospace" font-size="6.5" fill="#8a9ab8" fill-opacity="0.5" text-anchor="start">P90</text>
    <text x="587" y="254" font-family="'Courier New',monospace" font-size="6.5" fill="#8a9ab8" fill-opacity="0.5" text-anchor="start">P10</text>
    <text x="500" y="209" font-family="'Courier New',monospace" font-size="6.5" fill="#e2c068" fill-opacity="0.55" text-anchor="middle" letter-spacing="0.5">MEDIAN PATH</text>

    <text x="60"  y="356" font-family="'Courier New',monospace" font-size="7.5" fill="#8a9ab8" fill-opacity="0.4" text-anchor="start">SIMULATION START</text>
    <text x="582" y="356" font-family="'Courier New',monospace" font-size="7.5" fill="#8a9ab8" fill-opacity="0.4" text-anchor="end">SIMULATION HORIZON</text>


    <!-- BOTTOM METRICS BAR -->
    <line x1="0" y1="365" x2="640" y2="365" stroke="#c9a84c" stroke-opacity="0.18" stroke-width="1"/>
    <rect y="366" width="640" height="94" fill="url(#mc-bar-bg)"/>

    <line x1="106" y1="373" x2="106" y2="448" stroke="#c9a84c" stroke-opacity="0.08" stroke-width="0.7"/>
    <line x1="213" y1="373" x2="213" y2="448" stroke="#c9a84c" stroke-opacity="0.08" stroke-width="0.7"/>
    <line x1="320" y1="373" x2="320" y2="448" stroke="#c9a84c" stroke-opacity="0.08" stroke-width="0.7"/>
    <line x1="427" y1="373" x2="427" y2="448" stroke="#c9a84c" stroke-opacity="0.08" stroke-width="0.7"/>
    <line x1="534" y1="373" x2="534" y2="448" stroke="#c9a84c" stroke-opacity="0.08" stroke-width="0.7"/>

    <text x="53"  y="388" font-family="'Courier New',monospace" font-size="7" fill="#8a9ab8" fill-opacity="0.45" text-anchor="middle" letter-spacing="1.3">SIMULATED PATHS</text>
    <text x="53"  y="415" font-family="'Courier New',monospace" font-size="19" fill="#c9a84c" text-anchor="middle" font-weight="bold">10,000+</text>
    <text x="53"  y="430" font-family="'Courier New',monospace" font-size="6.5" fill="#c9a84c" fill-opacity="0.45" text-anchor="middle">Per Strategy</text>

    <text x="159" y="388" font-family="'Courier New',monospace" font-size="7" fill="#8a9ab8" fill-opacity="0.45" text-anchor="middle" letter-spacing="1.3">CONFIDENCE BAND</text>
    <text x="159" y="415" font-family="'Courier New',monospace" font-size="19" fill="#c9a84c" text-anchor="middle" font-weight="bold">P10&#8211;P90</text>
    <text x="159" y="430" font-family="'Courier New',monospace" font-size="6.5" fill="#c9a84c" fill-opacity="0.45" text-anchor="middle">Percentile Range</text>

    <text x="266" y="388" font-family="'Courier New',monospace" font-size="7" fill="#8a9ab8" fill-opacity="0.45" text-anchor="middle" letter-spacing="1.3">VALIDATION STAGES</text>
    <text x="266" y="415" font-family="'Courier New',monospace" font-size="19" fill="#c9a84c" text-anchor="middle" font-weight="bold">05</text>
    <text x="266" y="430" font-family="'Courier New',monospace" font-size="6.5" fill="#c9a84c" fill-opacity="0.45" text-anchor="middle">Gauntlet Passed</text>

    <text x="373" y="388" font-family="'Courier New',monospace" font-size="7" fill="#8a9ab8" fill-opacity="0.45" text-anchor="middle" letter-spacing="1.3">MARKETS MODELED</text>
    <text x="373" y="415" font-family="'Courier New',monospace" font-size="19" fill="#c9a84c" text-anchor="middle" font-weight="bold">6</text>
    <text x="373" y="430" font-family="'Courier New',monospace" font-size="6.5" fill="#c9a84c" fill-opacity="0.45" text-anchor="middle">Asset Classes</text>

    <text x="480" y="388" font-family="'Courier New',monospace" font-size="7" fill="#8a9ab8" fill-opacity="0.45" text-anchor="middle" letter-spacing="1.3">PORTFOLIO MODE</text>
    <rect x="450" y="394" width="60" height="13" rx="2.5" fill="#c9a84c" fill-opacity="0.12" stroke="#c9a84c" stroke-opacity="0.30" stroke-width="0.6"/>
    <text x="480" y="403" font-family="'Courier New',monospace" font-size="8" fill="#c9a84c" text-anchor="middle" font-weight="bold">TAILORED</text>
    <text x="480" y="430" font-family="'Courier New',monospace" font-size="6.5" fill="#c9a84c" fill-opacity="0.45" text-anchor="middle">Per Client</text>

    <text x="587" y="388" font-family="'Courier New',monospace" font-size="7" fill="#8a9ab8" fill-opacity="0.45" text-anchor="middle" letter-spacing="1.3">STATUS</text>
    <circle cx="570" cy="411" r="3" fill="#22c55e">
      <animate attributeName="fill-opacity" values="1;0.4;1" dur="2.2s" repeatCount="indefinite"/>
    </circle>
    <text x="600" y="414" font-family="'Courier New',monospace" font-size="13" fill="#22c55e" text-anchor="middle" font-weight="bold">ROBUST</text>
    <text x="587" y="430" font-family="'Courier New',monospace" font-size="6.5" fill="#22c55e" fill-opacity="0.5" text-anchor="middle">All Stages Passed</text>

    <line x1="0" y1="440" x2="640" y2="440" stroke="#c9a84c" stroke-opacity="0.08" stroke-width="0.7"/>
    <text x="320" y="453" font-family="'Courier New',monospace" font-size="6" fill="#8a9ab8" fill-opacity="0.25" text-anchor="middle" letter-spacing="2">NEXUS CAPITAL &amp; INVESTMENTS &#183; MONTE CARLO ROBUSTNESS ENGINE &#183; ILLUSTRATIVE SIMULATION</text>

  </g><!-- /clip -->

  <rect width="640" height="460" rx="10" fill="none" stroke="#c9a84c" stroke-opacity="0.25" stroke-width="1.2"/>
  <rect x="1.5" y="1.5" width="637" height="457" rx="8.5" fill="none" stroke="#c9a84c" stroke-opacity="0.06" stroke-width="0.7"/>

</svg>
